<?xml version="1.0" encoding="utf-8"?>
<!-- Generator: Adobe Illustrator 16.0.0, SVG Export Plug-In . SVG Version: 6.00 Build 0)  -->
<!DOCTYPE svg PUBLIC "-//W3C//DTD SVG 1.1//EN" "http://www.w3.org/Graphics/SVG/1.1/DTD/svg11.dtd">
<svg version="1.1" id="Layer_1" xmlns="http://www.w3.org/2000/svg" xmlns:xlink="http://www.w3.org/1999/xlink" x="0px" y="0px"
	 width="850.39px" height="963.78px" viewBox="0 0 850.39 963.78" enable-background="new 0 0 850.39 963.78" xml:space="preserve">
<g>
	<path fill="#009444" d="M341.085,481.721v-23.588c0-4.271,1.508-7.936,4.529-10.992c3.057-3.057,6.739-4.586,11.048-4.586
		c4.861,0,8.839,1.859,11.934,5.58c3.128-3.721,7.125-5.58,11.986-5.58c4.273,0,7.936,1.529,10.992,4.586
		c3.058,3.057,4.586,6.721,4.586,10.992v23.588h-7.29v-23.588c0-2.283-0.811-4.234-2.433-5.855
		c-1.619-1.619-3.571-2.432-5.855-2.432c-2.283,0-4.254,0.812-5.91,2.432c-1.622,1.621-2.431,3.572-2.431,5.855v23.588h-7.292
		v-23.588c0-2.283-0.812-4.234-2.431-5.855c-1.622-1.619-3.573-2.432-5.856-2.432s-4.234,0.812-5.855,2.432
		c-1.619,1.621-2.431,3.572-2.431,5.855v23.588H341.085z"/>
	<path fill="#009444" d="M412.954,475.977c-3.83-3.83-5.745-8.434-5.745-13.811c0-5.416,1.915-10.035,5.745-13.865
		s8.435-5.746,13.812-5.746c5.412,0,10.035,1.916,13.865,5.746c3.831,3.83,5.746,8.449,5.746,13.865
		c0,5.377-1.915,9.98-5.746,13.811c-3.83,3.83-8.453,5.744-13.865,5.744C421.389,481.721,416.784,479.807,412.954,475.977z
		 M418.092,453.438c-2.396,2.43-3.591,5.34-3.591,8.729c0,3.387,1.195,6.279,3.591,8.674c2.393,2.393,5.283,3.59,8.674,3.59
		c3.388,0,6.276-1.197,8.672-3.59c2.43-2.395,3.646-5.287,3.646-8.674c0-3.389-1.217-6.299-3.646-8.729
		c-2.396-2.393-5.284-3.592-8.672-3.592C423.375,449.846,420.484,451.045,418.092,453.438z"/>
</g>
<path fill="#009444" d="M353.016,535.199h-0.33c-3.203,0-5.93-1.123-8.176-3.367c-2.283-2.283-3.425-5.029-3.425-8.232v-44.803
	h7.293V523.6c0,1.18,0.421,2.189,1.27,3.037c0.845,0.85,1.858,1.27,3.038,1.27h0.33V535.199z"/>
<path fill="#8DC63F" d="M371.08,519.289c0.811,2.504,2.264,4.568,4.363,6.188c2.174,1.623,4.623,2.43,7.35,2.43
	c2.171,0,4.345-0.494,6.519-1.49c2.28-1.029,3.958-2.34,5.025-3.92l6.023,4.086c-1.734,2.578-4.255,4.66-7.57,6.24
	c-3.278,1.586-6.61,2.377-9.997,2.377c-5.416,0-10.038-1.914-13.865-5.744c-3.831-3.832-5.746-8.436-5.746-13.811
	c0-5.414,1.915-10.037,5.746-13.867c3.827-3.828,8.449-5.746,13.865-5.746c5.374,0,9.979,1.918,13.809,5.746
	c3.83,3.83,5.745,8.453,5.745,13.867c0,1.215-0.108,2.412-0.33,3.592L371.08,519.289z M382.793,503.324
	c-2.727,0-5.176,0.811-7.35,2.43c-2.1,1.623-3.553,3.703-4.363,6.244h23.369c-0.811-2.541-2.268-4.621-4.364-6.244
	C387.911,504.135,385.479,503.324,382.793,503.324z"/>
<path fill="#8DC63F" d="M452.064,535.145h-7.293v-4.42c-3.643,2.984-7.751,4.475-12.317,4.475c-5.378,0-9.981-1.914-13.809-5.744
	c-3.831-3.832-5.746-8.436-5.746-13.811c0-5.414,1.915-10.037,5.746-13.867c3.827-3.828,8.431-5.746,13.809-5.746
	c5.415,0,10.034,1.918,13.865,5.746c3.83,3.83,5.745,8.453,5.745,13.867V535.145z M432.454,527.906c3.388,0,6.298-1.193,8.728-3.59
	c2.396-2.393,3.59-5.283,3.59-8.672c0-3.391-1.194-6.297-3.59-8.73c-2.43-2.393-5.34-3.59-8.728-3.59s-6.279,1.197-8.672,3.59
	c-2.396,2.434-3.593,5.34-3.593,8.73c0,3.389,1.197,6.279,3.593,8.672C426.175,526.713,429.066,527.906,432.454,527.906z"/>
<path fill="#8DC63F" d="M474.218,489.955c-1.179,0-2.192,0.424-3.038,1.273c-0.849,0.844-1.272,1.859-1.272,3.037v5.965h10.83v7.293
	h-10.83v27.676h-7.29v-40.934c0-3.203,1.142-5.93,3.425-8.176c2.246-2.283,4.973-3.424,8.176-3.424h9.723v7.289H474.218z"/>
<g>
	<g>
		<path fill-rule="evenodd" clip-rule="evenodd" fill="#006838" d="M471.551,430.801c-0.963,0.047-3.979,4.791-4.658,5.643
			c-1.407,1.762-3.93,4.348-3.215,6.818c1.321-0.592,2.921-1.707,3.942-2.77c1.882-1.955,3.621-4.049,5.577-5.936
			c2.941-2.832,6.2-3.717,9.75-1.357c2.309,1.529,4.637,3.021,7.308,4.764c-2.255,1.193-4.043,1.986-5.7,3.055
			c-1.611,1.039-3.229,2.188-4.564,3.631c-0.701,0.762-1.364,2.537-1.06,3.375c0.557,1.531,1.973,0.799,3.029,0.277
			c1.589-0.787,3.125-1.713,4.719-2.48c1.174-0.568,2.374-1.15,3.615-1.432c3.032-0.678,5.721-0.188,7.484,3.277
			c1.548,3.051,3.227,6.01,4.904,9.113c-1.824,0.406-3.332,0.645-4.78,1.119c-1.638,0.539-1.287,2.387,0.142,2.945
			c0.823,0.322,1.761,0.283,2.65,0.314c2.78,0.107,3.973,1.025,4.906,3.992c0.63,2.01,1.181,4.053,1.782,6.137
			c-3.22,0.436-6.306,1.242-9.356,1.107c-1.643-0.07-3.306-1.621-4.808-2.77c-0.752-0.576-1.139-1.768-1.732-2.639
			c-0.684-1.008-1.553-2.271-2.629-1.166c-0.434,0.443-0.254,2.242,0.145,3.121c0.794,1.752,1.933,3.295,3.113,5.229
			c-2.462,0.721-4.817,1.57-7.228,2.066c-1.775,0.367-2.885-1.156-3.583-2.783c-1.053-2.445-1.864-5.031-2.84-7.521
			c-0.447-1.146-0.743-3.09-2.15-2.414c-0.666,0.318-1.128,2.445-0.969,3.623c0.525,3.85,1.906,7.342,4.551,10.467
			c-4.073,0.625-7.971,1.078-11.38-0.826c-2.513-1.402-3.375-4.9-3.896-8.104c-0.345-2.105-0.389-4.299-0.885-6.35
			c-0.222-0.912-1.146-1.945-1.868-2.443c-0.291-0.199-1.58,2.033-1.594,2.334c-0.129,2.908,0.055,5.838,0.187,8.756
			c0.027,0.615,0.322,1.217,0.61,2.234c-3.572-2.551-6.009-5.656-7.172-9.914c-1.204-4.398-0.172-8.469,2.071-12.699
			c-3.186,0-5.98,0-8.925,0c-0.09-1.023-0.149-1.723-0.244-2.826c3.33,0.225,6.483,0.434,9.904,0.664
			c-0.349-5.508,1.231-10.127,4.993-13.518C464.661,432.244,468.096,430.969,471.551,430.801z"/>
	</g>
	<g>
		<path fill-rule="evenodd" clip-rule="evenodd" fill="#39B54A" d="M473.083,432.334c-0.961,0.047-3.976,4.793-4.658,5.645
			c-1.407,1.76-3.931,4.346-3.214,6.818c1.32-0.596,2.92-1.707,3.94-2.771c1.884-1.959,3.623-4.047,5.58-5.934
			c2.939-2.834,6.2-3.719,9.749-1.363c2.309,1.533,4.636,3.027,7.309,4.77c-2.255,1.189-4.044,1.986-5.702,3.055
			c-1.61,1.039-3.229,2.184-4.563,3.629c-0.702,0.762-1.365,2.537-1.062,3.373c0.562,1.533,1.978,0.801,3.034,0.277
			c1.586-0.787,3.123-1.711,4.715-2.477c1.177-0.57,2.378-1.154,3.618-1.434c3.03-0.68,5.719-0.186,7.482,3.279
			c1.549,3.047,3.229,6.01,4.904,9.111c-1.824,0.406-3.331,0.645-4.779,1.119c-1.636,0.539-1.288,2.387,0.144,2.943
			c0.821,0.324,1.758,0.285,2.647,0.316c2.78,0.109,3.973,1.023,4.904,3.992c0.635,2.01,1.182,4.055,1.784,6.135
			c-3.22,0.438-6.303,1.244-9.357,1.109c-1.639-0.072-3.303-1.621-4.806-2.77c-0.752-0.576-1.14-1.768-1.733-2.643
			c-0.682-1.006-1.552-2.27-2.629-1.162c-0.435,0.443-0.254,2.242,0.145,3.119c0.795,1.754,1.933,3.297,3.113,5.23
			c-2.462,0.719-4.815,1.572-7.227,2.066c-1.776,0.367-2.885-1.158-3.585-2.785c-1.052-2.445-1.863-5.027-2.837-7.521
			c-0.448-1.146-0.745-3.088-2.152-2.414c-0.666,0.32-1.13,2.447-0.968,3.625c0.523,3.85,1.905,7.342,4.549,10.467
			c-4.07,0.623-7.97,1.076-11.379-0.824c-2.512-1.406-3.375-4.902-3.896-8.107c-0.344-2.105-0.391-4.297-0.885-6.348
			c-0.222-0.912-1.144-1.947-1.866-2.441c-0.293-0.201-1.582,2.029-1.595,2.33c-0.13,2.91,0.057,5.842,0.185,8.758
			c0.029,0.615,0.322,1.217,0.612,2.234c-3.572-2.551-6.01-5.658-7.173-9.914c-1.204-4.4-0.17-8.467,2.072-12.701
			c-3.188,0-5.981,0-8.926,0c-0.089-1.021-0.149-1.723-0.243-2.824c3.33,0.225,6.482,0.434,9.905,0.664
			c-0.351-5.508,1.229-10.127,4.991-13.52C466.194,433.775,469.63,432.502,473.083,432.334z"/>
	</g>
	<g>
		<path fill-rule="evenodd" clip-rule="evenodd" fill="#FFFFFF" d="M498.867,452.578c0,0.508-0.411,0.918-0.919,0.918h-10.602
			c-0.507,0-0.919-0.41-0.919-0.918l0,0c0-0.506,0.412-0.918,0.919-0.918h10.602C498.456,451.66,498.867,452.072,498.867,452.578
			L498.867,452.578z"/>
	</g>
	<g>
		<path fill-rule="evenodd" clip-rule="evenodd" fill="#FFFFFF" d="M498.563,456.006c0,0.922-0.745,1.67-1.668,1.67l0,0
			c-0.921,0-1.668-0.748-1.668-1.67l0,0c0-0.922,0.747-1.67,1.668-1.67l0,0C497.818,454.336,498.563,455.084,498.563,456.006
			L498.563,456.006z"/>
	</g>
</g>
</svg>
